<!-- Generated by IcoMoon.io -->
<svg version="1.1" xmlns="http://www.w3.org/2000/svg" width="768" height="768" viewBox="0 0 768 768">
<title>facebook</title>
<g id="icomoon-ignore">
</g>
<path fill="#fff" d="M475.488 191.392c30.176 5.888 55.68 21.856 73.92 43.968 13.44 16.32 22.912 35.968 27.264 57.376 3.488 17.312 20.384 28.512 37.696 25.024s28.512-20.384 25.024-37.696c-6.4-31.744-20.48-61.024-40.608-85.408-27.328-33.152-65.824-57.248-111.040-66.048-17.344-3.392-34.144 7.936-37.536 25.28s7.936 34.144 25.28 37.536zM478.080 63.808c64 7.104 119.776 37.184 160.16 81.408 35.776 39.168 59.456 89.408 65.984 144.608 2.080 17.536 17.984 30.112 35.52 28.032s30.112-17.984 28.032-35.52c-8.096-68.704-37.632-131.392-82.272-180.288-50.496-55.296-120.384-92.992-200.352-101.856-17.568-1.952-33.376 10.72-35.328 28.256s10.72 33.376 28.256 35.328zM736 541.44c0.512-22.848-7.552-44.928-21.536-62.176-14.72-18.112-36.128-30.944-61.6-34.56-25.6-3.136-54.24-10.048-82.752-20.672-13.856-5.088-28.576-6.976-43.008-5.568-21.216 2.048-41.824 11.168-58.208 27.36l-23.040 23.040c-56.64-35.744-107.52-85.344-146.656-146.848l23.232-23.232c10.304-10.56 18.016-23.232 22.624-36.992 6.784-20.224 6.848-42.752-1.248-64.352-9.248-24.096-16.576-52.608-20.608-83.040-3.328-22.848-14.592-43.040-30.816-57.728-17.248-15.552-40.192-24.928-64.864-24.672h-95.872c-2.816 0-5.824 0.128-8.736 0.384-26.368 2.4-49.344 15.296-65.056 34.112s-24.256 43.744-21.856 70.368c9.6 98.432 43.68 199.776 102.912 291.264 48.064 77.216 116.736 147.936 201.536 201.792 82.176 54.304 181.888 91.584 290.752 103.392 2.944 0.288 6.112 0.416 9.216 0.416 26.496-0.096 50.496-10.976 67.776-28.384s27.936-41.504 27.84-67.872zM672 541.44v96c0.032 8.96-3.488 16.96-9.28 22.784s-13.728 9.44-22.592 9.472c-100.768-10.752-190.752-44.512-264.416-93.184-77.696-49.376-139.488-113.184-182.464-182.208-54.304-83.84-84.96-175.392-93.568-263.616-0.768-8.576 2.048-16.832 7.328-23.168s12.896-10.56 21.696-11.36l98.816-0.16c8.672-0.096 16.224 3.008 21.984 8.192 5.44 4.928 9.216 11.712 10.336 19.456 4.544 34.304 13.056 67.744 24.224 96.8 2.592 6.912 2.56 14.304 0.32 21.056-1.568 4.64-4.192 8.992-7.744 12.64l-40.384 40.352c-10.368 10.368-12.128 26.048-5.184 38.432 50.688 89.12 122.848 158.624 204.192 204.096 12.704 7.104 28.224 4.608 38.24-5.312l40.64-40.64c5.312-5.248 12.064-8.224 19.136-8.928 4.864-0.48 9.92 0.16 14.688 1.92 32.704 12.192 66.24 20.352 97.088 24.128 7.712 1.088 14.784 5.312 19.68 11.36 4.704 5.792 7.392 13.184 7.232 21.824z"></path>
</svg>
